<svg width="214" height="228" viewBox="0 0 214 228" fill="none" xmlns="http://www.w3.org/2000/svg">
<path d="M213.812 203.411C208.006 210.877 201.31 216.562 193.725 220.469C184.129 225.49 174.827 228 165.817 228C158.352 228 148.932 226.503 137.558 223.51C130.801 221.764 121.972 219.287 111.072 216.08C110.298 215.852 100.776 213.771 94.1872 212.941C88.2009 212.192 70.2083 210.696 44.0518 220.266C57.9176 202.617 74.4486 193.792 93.6447 193.792C101.11 193.792 110.531 195.289 121.908 198.282C128.662 200.028 137.491 202.503 148.393 205.708C149.946 206.169 158.649 208.006 165.278 208.848C171.908 209.689 189.16 211.051 213.812 203.411Z" fill="#000E5A"/>
<path d="M190.107 173.023C184.709 172.938 181.228 172.622 179.664 172.073C178.202 171.585 176.863 170.786 175.739 169.731C174.684 168.733 172.786 165.401 170.045 159.734C167.304 154.067 164.878 148.837 162.768 144.046L155.554 127.086L101.505 0H93.2743C86.8614 15.2726 80.4062 30.5452 73.9085 45.8177L39.4872 123.786L26.1864 152.651C21.966 161.765 19.1599 167.145 17.7681 168.792C16.5393 170.327 14.8892 171.47 13.0202 172.08C11.2493 172.629 7.28335 172.946 1.12243 173.031L0 174.045V180.626L1.12243 181.636C10.5733 180.963 19.9407 180.626 29.2244 180.626C37.4057 180.626 46.9402 180.963 57.8278 181.636L58.8417 180.626V174.037L57.7006 173.023C48.5041 172.938 42.7672 172.39 40.4899 171.377C38.2126 170.364 37.074 168.804 37.074 166.696C37.074 163.995 38.2974 159.734 40.7444 153.912L54.5428 121.507L91.1267 34.3016L127.834 121.507L143.402 160.111C144.577 163.15 145.164 165.598 145.164 167.456C145.164 169.731 143.982 171.186 141.617 171.822C139.253 172.458 133.346 172.859 123.898 173.023L122.888 174.037V180.618L123.898 181.629C137.906 181.292 151.914 180.918 165.922 180.506C173.093 180.506 181.151 180.88 190.095 181.629L191.109 180.618V174.037L190.107 173.023Z" fill="#000E5A"/>
</svg>
