<svg width="30" height="29" viewBox="0 0 30 29" fill="none" xmlns="http://www.w3.org/2000/svg">
<path d="M7.75 2.9C7.75 1.29837 9.04837 0 10.65 0H19.35C20.9516 0 22.25 1.29837 22.25 2.9V5.8H25.135C25.144 5.79992 25.153 5.79992 25.162 5.8H28.05C28.8508 5.8 29.5 6.44919 29.5 7.25C29.5 8.05081 28.8508 8.7 28.05 8.7H26.5001L25.2425 26.3066C25.1341 27.8242 23.8713 29 22.3499 29H7.65012C6.12867 29 4.86589 27.8242 4.75749 26.3066L3.49988 8.7H1.95C1.14919 8.7 0.5 8.05081 0.5 7.25C0.5 6.44919 1.14919 5.8 1.95 5.8H4.83803C4.84702 5.79992 4.856 5.79992 4.86497 5.8H7.75V2.9ZM10.65 5.8H19.35V2.9H10.65V5.8ZM6.40727 8.7L7.65012 26.1H22.3499L23.5927 8.7H6.40727Z" fill="#575757"/>
</svg>
