<svg width="28" height="23" viewBox="0 0 28 23" fill="none" xmlns="http://www.w3.org/2000/svg">
<path fill-rule="evenodd" clip-rule="evenodd" d="M16.0744 6.4351H1.19323C0.534227 6.4351 0 5.90088 0 5.24187C0 4.58287 0.534227 4.04864 1.19323 4.04864H16.0744C16.5938 2.21226 18.2822 0.866699 20.2849 0.866699C22.2876 0.866699 23.976 2.21226 24.4954 4.04864H26.6488C27.3078 4.04864 27.842 4.58287 27.842 5.24187C27.842 5.90088 27.3078 6.4351 26.6488 6.4351H24.4954C23.976 8.27149 22.2876 9.61705 20.2849 9.61705C18.2822 9.61705 16.5938 8.27149 16.0744 6.4351ZM18.2962 5.24187C18.2962 4.14354 19.1866 3.25316 20.2849 3.25316C21.3832 3.25316 22.2736 4.14354 22.2736 5.24187C22.2736 6.34021 21.3832 7.23059 20.2849 7.23059C19.1866 7.23059 18.2962 6.34021 18.2962 5.24187Z" fill="#575757"/>
<path fill-rule="evenodd" clip-rule="evenodd" d="M11.7676 19.1629H26.6488C27.3078 19.1629 27.842 18.6287 27.842 17.9697C27.842 17.3106 27.3078 16.7764 26.6488 16.7764H11.7676C11.2482 14.94 9.5598 13.5945 7.55712 13.5945C5.55444 13.5945 3.86603 14.94 3.34664 16.7764H1.19323C0.534227 16.7764 0 17.3106 0 17.9697C0 18.6287 0.534227 19.1629 1.19323 19.1629H3.34664C3.86603 20.9993 5.55444 22.3448 7.55712 22.3448C9.5598 22.3448 11.2482 20.9993 11.7676 19.1629ZM5.5684 17.9697C5.5684 16.8713 6.45878 15.9809 7.55712 15.9809C8.65546 15.9809 9.54583 16.8713 9.54583 17.9697C9.54583 19.068 8.65546 19.9584 7.55712 19.9584C6.45878 19.9584 5.5684 19.068 5.5684 17.9697Z" fill="#575757"/>
</svg>
